# xmcd
#
# Track frame offsets:
#	150
#	15867
#	33409
#	48055
#	64380
#	83028
#	99507
#	112168
#	123892
#	133025
#	146664
#	159690
#	171227
#
# Disc length: 2413 seconds
#
# Revision: 1
# Processed by: cddbd v1.5.2PL0 Copyright (c) Steve Scherf et al.
# Submitted via: audiograbber 1.83.01
#
DISCID=aa096b0d
DTITLE=Black Patty - Red Tape
DYEAR=2017
DGENRE=Blues
TTITLE0=Ask Your Mama
TTITLE1=Evil Queen Of Diamonds
TTITLE2=Good Bye Little Baby
TTITLE3=Red Tape Blues
TTITLE4=A Little Bit Friday
TTITLE5=I Schouldn't Have Done It
TTITLE6=Wooten Stomp
TTITLE7=Frenchmen Street Rag
TTITLE8=That's My Sugar
TTITLE9=I'll Never Come Back Home
TTITLE10=A Stroll With Mr. Roll
TTITLE11=The One That Is Always True
TTITLE12=Nagging Blues
EXTD=
EXTT0=
EXTT1=
EXTT2=
EXTT3=
EXTT4=
EXTT5=
EXTT6=
EXTT7=
EXTT8=
EXTT9=
EXTT10=
EXTT11=
EXTT12=
PLAYORDER=
